<svg xmlns="http://www.w3.org/2000/svg" width="122" height="144" viewBox="0 0 122 144">
<g>
<path d="M 69.42 107.49 C65.03,110.47 61.15,110.69 57.88,108.14 C56.57,107.12 54.15,105.58 52.50,104.73 C50.85,103.87 48.60,102.32 47.50,101.28 C46.40,100.25 44.71,99.10 43.75,98.73 C42.79,98.36 42.00,97.60 42.00,97.03 C42.00,96.46 41.33,96.00 40.50,96.00 C39.67,96.00 39.00,95.62 39.00,95.16 C39.00,94.69 37.42,93.47 35.50,92.43 C33.33,91.26 31.98,89.78 31.94,88.52 C31.58,75.46 32.31,63.31 33.61,60.79 C35.17,57.77 34.68,54.00 32.73,54.00 C31.91,54.00 31.90,53.70 32.69,52.91 C33.44,52.16 34.38,52.13 35.66,52.82 C36.75,53.40 39.18,53.50 41.51,53.05 C46.31,52.12 54.00,49.06 54.00,48.08 C54.00,47.22 60.57,44.00 62.31,44.00 C63.85,44.00 73.95,51.44 76.04,54.12 C77.31,55.74 78.43,56.00 82.54,55.60 C85.27,55.33 88.91,54.82 90.63,54.46 C92.35,54.10 93.99,54.18 94.28,54.65 C95.15,56.06 96.31,84.63 95.61,87.41 C95.25,88.84 94.38,90.00 93.66,90.00 C92.95,90.00 90.97,91.57 89.27,93.50 C87.57,95.43 85.47,97.00 84.62,97.00 C83.77,97.00 82.59,97.90 82.00,99.00 C81.41,100.09 79.17,101.89 77.02,102.99 C74.88,104.08 71.45,106.11 69.42,107.49 ZM 55.71 83.38 C56.10,83.77 57.34,83.95 58.46,83.79 C60.03,83.57 60.57,82.64 60.81,79.75 C61.17,75.41 63.01,74.84 65.32,78.36 C67.94,82.37 70.04,84.00 72.57,84.00 C75.84,84.00 75.64,82.71 71.50,77.30 C69.57,74.78 68.00,71.69 68.00,70.43 C68.00,69.18 69.57,66.09 71.50,63.57 C73.43,61.05 75.00,58.76 75.00,58.49 C75.00,58.22 73.61,58.00 71.91,58.00 C69.65,58.00 68.01,58.93 65.73,61.50 C64.03,63.42 62.26,65.00 61.82,65.00 C61.37,65.00 61.00,63.45 61.00,61.56 C61.00,57.63 60.25,56.86 57.17,57.66 C55.09,58.21 55.00,58.75 55.00,70.45 C55.00,77.17 55.32,82.99 55.71,83.38 Z" fill="rgb(10,22,29)" data-index="0"></path>
<path d="M 66.68 109.02 C61.99,111.59 61.22,111.52 55.95,108.23 C53.50,106.70 47.22,103.03 42.00,100.07 C35.50,96.39 32.21,94.93 30.56,92.40 C28.88,89.81 28.92,86.09 29.02,77.71 C29.04,76.20 29.06,74.55 29.07,72.72 L 29.20 53.79 L 32.19 52.15 C33.83,51.24 41.33,46.87 48.84,42.43 L 62.50 34.36 L 66.00 36.51 C74.03,41.45 81.87,45.95 87.68,48.94 C91.08,50.70 94.36,52.72 94.96,53.45 C95.68,54.32 95.95,61.08 95.77,73.57 L 95.73 76.37 C95.49,67.16 94.83,55.53 94.28,54.65 C93.99,54.18 92.35,54.10 90.63,54.46 C88.91,54.82 85.27,55.33 82.54,55.60 C78.43,56.00 77.31,55.74 76.04,54.12 C73.95,51.44 63.85,44.00 62.31,44.00 C60.57,44.00 54.00,47.22 54.00,48.08 C54.00,49.06 46.31,52.12 41.51,53.05 C39.18,53.50 36.75,53.40 35.66,52.82 C34.38,52.13 33.44,52.16 32.69,52.91 C31.90,53.70 31.91,54.00 32.73,54.00 C34.68,54.00 35.17,57.77 33.61,60.79 C32.31,63.31 31.58,75.46 31.94,88.52 C31.98,89.78 33.33,91.26 35.50,92.43 C37.42,93.47 39.00,94.69 39.00,95.16 C39.00,95.62 39.67,96.00 40.50,96.00 C41.33,96.00 42.00,96.46 42.00,97.03 C42.00,97.60 42.79,98.36 43.75,98.73 C44.71,99.10 46.40,100.25 47.50,101.28 C48.60,102.32 50.85,103.87 52.50,104.73 C54.15,105.58 56.57,107.12 57.88,108.14 C60.46,110.15 63.40,110.44 66.68,109.02 ZM 69.51 107.43 C71.55,106.05 74.91,104.07 77.02,102.99 C79.17,101.89 81.41,100.09 82.00,99.00 C82.59,97.90 83.77,97.00 84.62,97.00 C85.47,97.00 87.57,95.43 89.27,93.50 C90.97,91.57 92.95,90.00 93.66,90.00 C94.35,90.00 95.19,88.92 95.57,87.57 L 95.50 92.39 L 83.00 99.65 C78.00,102.56 72.77,105.57 69.51,107.43 ZM 65.73 61.50 C66.32,60.84 66.86,60.29 67.38,59.83 C66.18,60.93 65.03,62.56 63.80,64.84 C61.34,69.40 60.00,68.76 60.00,63.00 C60.00,58.33 59.83,58.00 57.50,58.00 L 56.27 58.00 C56.52,57.85 56.82,57.76 57.17,57.66 C60.25,56.86 61.00,57.63 61.00,61.56 C61.00,63.45 61.37,65.00 61.82,65.00 C62.26,65.00 64.03,63.42 65.73,61.50 ZM 71.97 58.00 C70.93,58.00 69.99,58.20 69.11,58.63 C70.00,58.19 70.89,58.00 71.91,58.00 C71.93,58.00 71.95,58.00 71.97,58.00 Z" fill="rgb(37,78,99)" data-index="1"></path>
<path d="M 76.39 107.31 C69.73,110.99 63.43,113.99 62.39,113.99 C60.70,113.97 46.24,106.59 45.00,105.10 C44.72,104.77 40.99,102.70 36.69,100.50 C31.40,97.79 28.45,96.57 26.84,94.37 C24.82,91.62 24.88,87.33 25.04,76.69 C25.06,75.35 25.09,73.91 25.11,72.36 L 25.36 51.94 L 28.43 50.12 C30.12,49.12 36.00,45.68 41.50,42.49 C47.00,39.30 53.56,35.41 56.09,33.85 C61.46,30.51 63.25,30.35 66.85,32.84 C68.31,33.85 75.71,38.19 83.29,42.48 C90.87,46.77 97.74,51.21 98.54,52.36 C99.69,54.00 100.00,58.30 100.00,72.64 C100.00,82.65 99.72,91.57 99.37,92.47 C98.62,94.45 92.43,98.44 76.39,107.31 ZM 69.42 107.49 C69.45,107.47 69.48,107.45 69.51,107.43 C72.77,105.57 78.00,102.56 83.00,99.65 L 95.50 92.39 L 95.57 87.57 C95.58,87.52 95.60,87.47 95.61,87.41 C95.87,86.38 95.87,81.79 95.73,76.37 L 95.77 73.57 C95.95,61.08 95.68,54.32 94.96,53.45 C94.36,52.72 91.08,50.70 87.68,48.94 C81.87,45.95 74.03,41.45 66.00,36.51 L 62.50 34.36 L 48.84 42.43 C41.33,46.87 33.83,51.24 32.19,52.15 L 29.20 53.79 L 29.07 72.72 C29.06,74.55 29.04,76.20 29.02,77.71 C28.92,86.09 28.88,89.81 30.56,92.40 C32.21,94.93 35.50,96.39 42.00,100.07 C47.22,103.03 53.50,106.70 55.95,108.23 C61.22,111.52 61.99,111.59 66.68,109.02 C67.57,108.64 68.48,108.13 69.42,107.49 ZM 55.71 83.38 L 55.71 83.37 C55.61,83.28 55.52,82.84 55.44,82.14 C55.18,80.03 55.00,75.50 55.00,70.45 L 55.00 70.37 L 55.00 70.36 C55.00,60.74 55.07,58.72 56.27,58.00 L 57.50 58.00 C59.83,58.00 60.00,58.33 60.00,63.00 C60.00,68.76 61.34,69.40 63.80,64.84 C65.03,62.56 66.18,60.93 67.38,59.83 C67.97,59.31 68.54,58.92 69.11,58.63 C69.99,58.20 70.93,58.00 71.97,58.00 C73.64,58.00 75.00,58.22 75.00,58.49 C75.00,58.76 73.43,61.05 71.50,63.57 C69.57,66.09 68.00,69.18 68.00,70.43 C68.00,71.69 69.57,74.78 71.50,77.30 C75.64,82.71 75.84,84.00 72.57,84.00 C70.04,84.00 67.94,82.37 65.32,78.36 C63.01,74.84 61.17,75.41 60.81,79.75 C60.57,82.64 60.03,83.57 58.46,83.79 C57.34,83.95 56.10,83.77 55.71,83.38 Z" fill="rgb(43,159,215)" data-index="2"></path>

</g>
</svg>